<svg width="14" height="14" viewBox="0 0 14 14" fill="none" xmlns="http://www.w3.org/2000/svg">
<path d="M12 7.3125H13.3125V11.3125C13.3125 11.6667 13.1771 11.9792 12.9062 12.25C12.6562 12.5208 12.3542 12.6562 12 12.6562C12 12.8438 11.9271 13 11.7812 13.125C11.6562 13.25 11.5 13.3125 11.3125 13.3125H2C1.8125 13.3125 1.64583 13.25 1.5 13.125C1.375 13 1.3125 12.8438 1.3125 12.6562C0.958333 12.6562 0.645833 12.5208 0.375 12.25C0.125 11.9792 0 11.6667 0 11.3125V7.3125H2V6.8125C2 6.41667 2.14583 6.07292 2.4375 5.78125C2.75 5.46875 3.10417 5.3125 3.5 5.3125C3.91667 5.3125 4.29167 5.47917 4.625 5.8125L5.53125 6.84375C5.65625 6.98958 5.84375 7.14583 6.09375 7.3125H10.6562V1.875C10.6562 1.72917 10.6042 1.60417 10.5 1.5C10.3958 1.375 10.2604 1.3125 10.0938 1.3125C9.94792 1.3125 9.82292 1.36458 9.71875 1.46875L8.875 2.3125C8.91667 2.47917 8.9375 2.59375 8.9375 2.65625C8.9375 2.88542 8.86458 3.125 8.71875 3.375L6.875 1.53125C7.125 1.38542 7.36458 1.3125 7.59375 1.3125C7.69792 1.3125 7.8125 1.33333 7.9375 1.375L8.78125 0.53125C9.13542 0.177083 9.57292 0 10.0938 0C10.6146 0 11.0625 0.1875 11.4375 0.5625C11.8125 0.916667 12 1.35417 12 1.875V7.3125ZM2.375 4.28125C2.125 4.01042 2 3.6875 2 3.3125C2 2.9375 2.125 2.625 2.375 2.375C2.625 2.125 2.9375 2 3.3125 2C3.6875 2 4 2.125 4.25 2.375C4.52083 2.625 4.65625 2.9375 4.65625 3.3125C4.65625 3.6875 4.52083 4.01042 4.25 4.28125C4 4.53125 3.6875 4.65625 3.3125 4.65625C2.9375 4.65625 2.625 4.53125 2.375 4.28125Z" fill="#65665C"/>
</svg>
