<svg width="14" height="10" viewBox="0 0 14 10" fill="none" xmlns="http://www.w3.org/2000/svg">
<path d="M12.6562 3.84375C12.8646 4.03125 13.0208 4.25 13.125 4.5C13.25 4.75 13.3125 5.02083 13.3125 5.3125V9.3125H12V8H1.3125V9.3125H0V5.3125C0 5.02083 0.0520833 4.75 0.15625 4.5C0.28125 4.25 0.447917 4.03125 0.65625 3.84375V2C0.65625 1.625 0.739583 1.29167 0.90625 1C1.09375 0.6875 1.33333 0.447917 1.625 0.28125C1.9375 0.09375 2.28125 0 2.65625 0H5.3125C5.58333 0 5.83333 0.0520833 6.0625 0.15625C6.29167 0.239583 6.48958 0.354167 6.65625 0.5C6.82292 0.354167 7.02083 0.239583 7.25 0.15625C7.47917 0.0520833 7.72917 0 8 0H10.6562C11.0312 0 11.3646 0.09375 11.6562 0.28125C11.9688 0.447917 12.2083 0.6875 12.375 1C12.5625 1.29167 12.6562 1.625 12.6562 2V3.84375ZM8 1.3125C7.8125 1.3125 7.64583 1.38542 7.5 1.53125C7.375 1.65625 7.3125 1.8125 7.3125 2V3.3125H11.3125V2C11.3125 1.8125 11.25 1.65625 11.125 1.53125C11 1.38542 10.8438 1.3125 10.6562 1.3125H8ZM2 2V3.3125H6V2C6 1.8125 5.92708 1.65625 5.78125 1.53125C5.65625 1.38542 5.5 1.3125 5.3125 1.3125H2.65625C2.46875 1.3125 2.3125 1.38542 2.1875 1.53125C2.0625 1.65625 2 1.8125 2 2ZM1.3125 6.65625H12V5.3125C12 5.14583 11.9271 5 11.7812 4.875C11.6562 4.72917 11.5 4.65625 11.3125 4.65625H2C1.8125 4.65625 1.64583 4.72917 1.5 4.875C1.375 5 1.3125 5.14583 1.3125 5.3125V6.65625Z" fill="#65665C"/>
</svg>
