<svg width="22" height="27" viewBox="0 0 22 27" fill="none" xmlns="http://www.w3.org/2000/svg">
<path d="M12 9.3125H19.375L12 2V9.3125ZM16 16V13.3125H5.375V16H16ZM16 21.3125V18.625H5.375V21.3125H16ZM13.375 0L21.375 8V24C21.375 24.7083 21.1042 25.3333 20.5625 25.875C20.0208 26.375 19.3958 26.625 18.6875 26.625H2.6875C1.97917 26.625 1.35417 26.375 0.8125 25.875C0.270833 25.3333 0 24.7083 0 24L0.0625 2.625C0.0625 1.91667 0.3125 1.3125 0.8125 0.8125C1.35417 0.270833 1.97917 0 2.6875 0H13.375Z" fill="#CF6F49"/>
</svg>
