<svg width="30" height="16" viewBox="0 0 30 16" fill="none" xmlns="http://www.w3.org/2000/svg">
<path d="M26.6875 5.3125L29.375 7.9375L24 13.3125L21.375 10.6875L18.6875 13.3125L16 10.6875H15.5625C15.1875 11.7292 14.625 12.6458 13.875 13.4375C13.1667 14.2292 12.2917 14.8542 11.25 15.3125C10.25 15.7708 9.16667 16 8 16C6.54167 16 5.20833 15.6458 4 14.9375C2.79167 14.1875 1.8125 13.2083 1.0625 12C0.354167 10.7917 0 9.45833 0 8C0 6.54167 0.354167 5.20833 1.0625 4C1.8125 2.79167 2.79167 1.83333 4 1.125C5.20833 0.375 6.54167 0 8 0C9.16667 0 10.25 0.229167 11.25 0.6875C12.2917 1.14583 13.1667 1.77083 13.875 2.5625C14.625 3.35417 15.1875 4.27083 15.5625 5.3125H26.6875ZM8 12C8.75 12 9.41667 11.8333 10 11.5C10.625 11.125 11.1042 10.6458 11.4375 10.0625C11.8125 9.4375 12 8.75 12 8C12 7.25 11.8125 6.58333 11.4375 6C11.1042 5.375 10.625 4.89583 10 4.5625C9.41667 4.1875 8.75 4 8 4C7.29167 4 6.625 4.1875 6 4.5625C5.41667 4.89583 4.9375 5.375 4.5625 6C4.1875 6.58333 4 7.25 4 8C4 8.75 4.1875 9.4375 4.5625 10.0625C4.9375 10.6458 5.41667 11.125 6 11.5C6.625 11.8333 7.29167 12 8 12Z" fill="#CF6F49"/>
</svg>
