<svg width="14" height="17" viewBox="0 0 14 17" fill="none" xmlns="http://www.w3.org/2000/svg">
<path d="M11.6797 3.32031C12.1484 3.32031 12.5391 3.48958 12.8516 3.82812C13.1901 4.14062 13.3594 4.53125 13.3594 5V15C13.3594 15.4427 13.1901 15.8333 12.8516 16.1719C12.5391 16.4844 12.1484 16.6406 11.6797 16.6406H1.67969C1.21094 16.6406 0.807292 16.4844 0.46875 16.1719C0.15625 15.8333 0 15.4427 0 15V5C0 4.53125 0.15625 4.14062 0.46875 3.82812C0.807292 3.48958 1.21094 3.32031 1.67969 3.32031H3.35938C3.35938 2.69531 3.5026 2.13542 3.78906 1.64062C4.10156 1.14583 4.50521 0.755208 5 0.46875C5.49479 0.15625 6.05469 0 6.67969 0C7.30469 0 7.86458 0.15625 8.35938 0.46875C8.85417 0.755208 9.24479 1.14583 9.53125 1.64062C9.84375 2.13542 10 2.69531 10 3.32031H11.6797ZM5 6.64062V5H3.35938V6.64062C3.35938 6.875 3.4375 7.08333 3.59375 7.26562C3.75 7.42188 3.94531 7.5 4.17969 7.5C4.41406 7.5 4.60938 7.42188 4.76562 7.26562C4.92188 7.08333 5 6.875 5 6.64062ZM6.67969 1.64062C6.21094 1.64062 5.80729 1.8099 5.46875 2.14844C5.15625 2.46094 5 2.85156 5 3.32031H8.35938C8.35938 2.85156 8.1901 2.46094 7.85156 2.14844C7.53906 1.8099 7.14844 1.64062 6.67969 1.64062ZM10 6.64062V5H8.35938V6.64062C8.35938 6.875 8.4375 7.08333 8.59375 7.26562C8.75 7.42188 8.94531 7.5 9.17969 7.5C9.41406 7.5 9.60938 7.42188 9.76562 7.26562C9.92188 7.08333 10 6.875 10 6.64062Z" fill="#2A2C1F"/>
</svg>
