<svg width="11" height="11" viewBox="0 0 11 11" fill="none" xmlns="http://www.w3.org/2000/svg">
<path d="M2 8.6875H5.84375L2 4.84375V8.6875ZM9.125 9.125L10.6875 10.6875H1.34375C0.989583 10.6875 0.677083 10.5521 0.40625 10.2812C0.135417 10.0104 0 9.69792 0 9.34375V0L1.5625 1.5625L0.875 2.28125L1.34375 2.75L2.03125 2.03125L3.34375 3.34375L2.625 4.03125L3.09375 4.53125L3.8125 3.8125L5.125 5.125L4.40625 5.8125L4.875 6.28125L5.59375 5.59375L6.875 6.875L6.15625 7.59375L6.65625 8.0625L7.34375 7.34375L8.65625 8.65625L7.9375 9.34375L8.40625 9.8125L9.125 9.125Z" fill="#65665C"/>
</svg>
